<svg id="Layer_1" data-name="Layer 1" xmlns="http://www.w3.org/2000/svg" xmlns:xlink="http://www.w3.org/1999/xlink" viewBox="0 0 99 48.44"><defs><style>.cls-1{fill:url(#New_Gradient_Swatch);}.cls-2{fill:url(#New_Gradient_Swatch-2);}.cls-3{fill:url(#Degradado_sin_nombre_2);}.cls-4{fill:url(#Degradado_sin_nombre_2-2);}.cls-5{fill:url(#New_Gradient_Swatch-3);}.cls-6{fill:url(#New_Gradient_Swatch-4);}.cls-7{fill:url(#Degradado_sin_nombre_2-3);}.cls-8{fill:url(#Degradado_sin_nombre_2-4);}.cls-9{fill:#2f459c;}</style><linearGradient id="New_Gradient_Swatch" x1="87.64" y1="39.9" x2="87.64" y2="1.65" gradientUnits="userSpaceOnUse"><stop offset="0" stop-color="#2b3990"/><stop offset="1" stop-color="#1c75bc"/></linearGradient><linearGradient id="New_Gradient_Swatch-2" x1="83.76" y1="38.84" x2="83.76" y2="2.08" xlink:href="#New_Gradient_Swatch"/><linearGradient id="Degradado_sin_nombre_2" x1="34.72" y1="38.35" x2="34.72" y2="1.02" xlink:href="#New_Gradient_Swatch"/><linearGradient id="Degradado_sin_nombre_2-2" x1="51.78" y1="38.09" x2="51.78" y2="2.17" xlink:href="#New_Gradient_Swatch"/><linearGradient id="New_Gradient_Swatch-3" x1="51.26" y1="38.35" x2="51.26" y2="0.99" xlink:href="#New_Gradient_Swatch"/><linearGradient id="New_Gradient_Swatch-4" x1="67.82" y1="38.35" x2="67.82" y2="1.18" xlink:href="#New_Gradient_Swatch"/><linearGradient id="Degradado_sin_nombre_2-3" x1="14.07" y1="37.67" x2="14.07" y2="2.18" xlink:href="#New_Gradient_Swatch"/><linearGradient id="Degradado_sin_nombre_2-4" x1="14.21" y1="39.14" x2="14.21" y2="4.48" xlink:href="#New_Gradient_Swatch"/></defs><path class="cls-1" d="M98,25.54a9.5,9.5,0,0,0-4.52-2.82,19.16,19.16,0,0,0-2.78-.7c-1-.18-1.81-.35-2.55-.53l-.66-.17-6.27,6.27c.4.16.82.32,1.26.45a22.18,22.18,0,0,0,2.67.66c1,.19,1.83.36,2.48.53a7.2,7.2,0,0,1,2.49.93,1.73,1.73,0,0,1,.64,1.46,1.9,1.9,0,0,1-1.39,1.8,8.44,8.44,0,0,1-3.21.56,12.34,12.34,0,0,1-3.3-.4,21,21,0,0,1-7-4.1v8.2a21.46,21.46,0,0,0,4.5,1.55,23.91,23.91,0,0,0,5.78.67,20.57,20.57,0,0,0,5.75-.71,13.34,13.34,0,0,0,4.18-2,8.28,8.28,0,0,0,2.59-3,7.92,7.92,0,0,0,.91-3.71A7.49,7.49,0,0,0,98,25.54Z" transform="translate(-0.5 -0.78)"/><path class="cls-2" d="M91.61,10.84a24.94,24.94,0,0,0-2.78-.15,18.94,18.94,0,0,0-5.49.74,12.74,12.74,0,0,0-4.08,2,8.91,8.91,0,0,0-2.5,2.92,7.41,7.41,0,0,0-.85,3.49A7.94,7.94,0,0,0,77.49,25Z" transform="translate(-0.5 -0.78)"/><rect class="cls-3" x="30.4" y="28.7" width="8.63" height="9.65"/><path class="cls-4" d="M39.53,25V19.52a14.71,14.71,0,0,1,2-1.16,5.14,5.14,0,0,1,4.23-.09,2.48,2.48,0,0,1,1.15,1.29,7.26,7.26,0,0,1,.45,2.31c.06.87.08,1.93.09,3.14H56.1V19.52a12.14,12.14,0,0,1,2.09-1.22,4.69,4.69,0,0,1,2-.44,4.81,4.81,0,0,1,2.18.41,2.48,2.48,0,0,1,1.15,1.29,7.28,7.28,0,0,1,.44,2.3c.05.86.07,1.92.07,3.15h8.68V21.12a16.28,16.28,0,0,0-.58-4.8,8.67,8.67,0,0,0-1.74-3.16,6.5,6.5,0,0,0-2.59-1.85,9.11,9.11,0,0,0-3.45-.62,9,9,0,0,0-4.47,1.25,25.18,25.18,0,0,0-4.7,3.56,7.52,7.52,0,0,0-2.93-3.6,8.17,8.17,0,0,0-4.46-1.21,8.8,8.8,0,0,0-4.22,1,24.21,24.21,0,0,0-4,2.81v-3H30.9V25Z" transform="translate(-0.5 -0.78)"/><rect class="cls-5" x="46.92" y="28.7" width="8.68" height="9.65"/><rect class="cls-6" x="63.48" y="28.7" width="8.68" height="9.65"/><path class="cls-7" d="M9.33,25a9.91,9.91,0,0,1,1.55-5.67,5.4,5.4,0,0,1,4.67-2.17,9.12,9.12,0,0,1,1.78.21,6.85,6.85,0,0,1,1.67.53V25h8.63V.78H19V12.56a21.54,21.54,0,0,0-3.24-1.41,11.44,11.44,0,0,0-3.56-.46,10.21,10.21,0,0,0-4.54,1.05A11,11,0,0,0,4,14.59a14.69,14.69,0,0,0-2.59,4.63A18.48,18.48,0,0,0,.5,25Z" transform="translate(-0.5 -0.78)"/><path class="cls-8" d="M19,29.48v2a7.91,7.91,0,0,1-2.12,1.2,6.26,6.26,0,0,1-2.29.45,4.52,4.52,0,0,1-4-1.83,6.14,6.14,0,0,1-.8-1.84h-9c.41,2.57,6.6,13.49,16.3,8.25A11.7,11.7,0,0,0,19,36.25v2.89h8.63V29.48Z" transform="translate(-0.5 -0.78)"/><polygon class="cls-9" points="34.77 48.36 35.74 48.36 35.74 45.6 38.35 45.6 38.35 44.81 35.74 44.81 35.74 42.63 38.81 42.63 38.81 41.84 34.77 41.84 34.77 48.36"/><path class="cls-9" d="M64.31,42.63h-1l-2.59,6.52h.74a.31.31,0,0,0,.21-.07.42.42,0,0,0,.12-.15l.57-1.51h2.88l.57,1.51a.4.4,0,0,0,.12.16.35.35,0,0,0,.21.07h.74Zm-.49,4.09H62.65l1-2.52c0-.09.07-.19.11-.3s.06-.24.1-.37v0h0c.07.26.14.47.2.64l1,2.53Z" transform="translate(-0.5 -0.78)"/><path class="cls-9" d="M21.83,46a2.07,2.07,0,0,0-.49-.32c-.19-.08-.38-.16-.57-.22l-.57-.19a2.78,2.78,0,0,1-.49-.21,1,1,0,0,1-.35-.3.68.68,0,0,1-.14-.44.91.91,0,0,1,.08-.37.84.84,0,0,1,.22-.31,1,1,0,0,1,.36-.2,1.5,1.5,0,0,1,.5-.08,1.58,1.58,0,0,1,.52.08,2.29,2.29,0,0,1,.38.16l.26.17a.34.34,0,0,0,.18.08.17.17,0,0,0,.13,0,.27.27,0,0,0,.1-.11l.24-.46a2.3,2.3,0,0,0-.8-.5,2.8,2.8,0,0,0-1-.18,2.41,2.41,0,0,0-.87.15,2.07,2.07,0,0,0-.64.41,1.77,1.77,0,0,0-.4.58,1.74,1.74,0,0,0-.13.67,1.78,1.78,0,0,0,.13.74,1.33,1.33,0,0,0,.35.49,1.8,1.8,0,0,0,.49.32l.57.22.57.18a2.19,2.19,0,0,1,.49.21,1,1,0,0,1,.35.3.77.77,0,0,1,.13.47,1.34,1.34,0,0,1-.08.46,1,1,0,0,1-.25.36,1,1,0,0,1-.4.22,1.53,1.53,0,0,1-.54.08,1.65,1.65,0,0,1-.62-.1,2,2,0,0,1-.44-.22,3.2,3.2,0,0,1-.31-.22.42.42,0,0,0-.22-.1.31.31,0,0,0-.23.13l-.27.46a2.3,2.3,0,0,0,.41.35A2.12,2.12,0,0,0,19,49a3.33,3.33,0,0,0,.56.18,3.08,3.08,0,0,0,.61.06,2.66,2.66,0,0,0,.93-.16,2,2,0,0,0,.69-.45,1.8,1.8,0,0,0,.43-.65,2.16,2.16,0,0,0,.15-.81,1.77,1.77,0,0,0-.13-.69A1.51,1.51,0,0,0,21.83,46Z" transform="translate(-0.5 -0.78)"/><path class="cls-9" d="M30.93,43.49a3.28,3.28,0,0,0-1-.69,3.53,3.53,0,0,0-1.32-.25h0a3.44,3.44,0,0,0-1.31.25,2.79,2.79,0,0,0-1,.69,2.93,2.93,0,0,0-.66,1,3.89,3.89,0,0,0,0,2.69,3,3,0,0,0,.66,1.05,3.06,3.06,0,0,0,1,.69,3.43,3.43,0,0,0,1.31.24h0A3.53,3.53,0,0,0,29.91,49a3,3,0,0,0,1-.69,3.23,3.23,0,0,0,.66-1.05,3.89,3.89,0,0,0,.23-1.34,3.85,3.85,0,0,0-.23-1.34A3.28,3.28,0,0,0,30.93,43.49Zm-.26,3.44a2.12,2.12,0,0,1-.45.79,2,2,0,0,1-.71.49,2.43,2.43,0,0,1-.92.17h0a2.43,2.43,0,0,1-.92-.17,2,2,0,0,1-.71-.49,2.29,2.29,0,0,1-.46-.79,3.29,3.29,0,0,1-.16-1,3.4,3.4,0,0,1,.16-1,2.15,2.15,0,0,1,.46-.78,1.91,1.91,0,0,1,.71-.5,2.43,2.43,0,0,1,.92-.17h0a2.43,2.43,0,0,1,.92.17,1.91,1.91,0,0,1,.71.5,2,2,0,0,1,.45.78,3.13,3.13,0,0,1,.16,1A3.07,3.07,0,0,1,30.67,46.93Z" transform="translate(-0.5 -0.78)"/><polygon class="cls-9" points="78.38 47.58 78.38 45.45 80.85 45.45 80.85 44.7 78.38 44.7 78.38 42.63 81.45 42.63 81.45 41.84 77.41 41.84 77.41 48.36 81.45 48.36 81.45 47.58 78.38 47.58"/><path class="cls-9" d="M72.69,46.3a2.17,2.17,0,0,0,.66-.26,1.78,1.78,0,0,0,.49-.41,1.62,1.62,0,0,0,.31-.54,1.91,1.91,0,0,0,.1-.64,1.79,1.79,0,0,0-.14-.75,1.45,1.45,0,0,0-.44-.58,2,2,0,0,0-.75-.36,3.81,3.81,0,0,0-.81-.13H70v6.51h1V46.47h.63a.62.62,0,0,1,.27.05.42.42,0,0,1,.17.16l.12.17h0l1.49,2.08a.39.39,0,0,0,.37.21h.87L73,46.61A1,1,0,0,0,72.69,46.3Zm-.58-.55h0l-.31,0h-.88V43.39h1.19a1.57,1.57,0,0,1,.83.27,1,1,0,0,1,.37.85,1.25,1.25,0,0,1-.1.51,1,1,0,0,1-.28.39,1.38,1.38,0,0,1-.48.26A1.7,1.7,0,0,1,72.11,45.75Z" transform="translate(-0.5 -0.78)"/><path class="cls-9" d="M57.8,42.69a.28.28,0,0,0-.11.16L56.4,47.22c0,.17-.08.36-.12.56a5.07,5.07,0,0,0-.14-.56l-1.47-4.37a.31.31,0,0,0-.12-.16.33.33,0,0,0-.21-.07h-.27a.38.38,0,0,0-.21.07.36.36,0,0,0-.12.16l-1.47,4.37a1.73,1.73,0,0,0-.08.27c0,.1,0,.21-.07.32l-.06-.32a1.76,1.76,0,0,0-.07-.27l-1.28-4.37a.31.31,0,0,0-.11-.16.38.38,0,0,0-.22-.06h-.81l2,6.52h.87l1.6-4.84c0-.09.06-.21.1-.35a2.21,2.21,0,0,0,.09.35l1.59,4.84h.87l2-6.52H58A.41.41,0,0,0,57.8,42.69Z" transform="translate(-0.5 -0.78)"/><polygon class="cls-9" points="41.47 42.65 43.55 42.65 43.55 48.36 44.51 48.36 44.51 42.65 46.58 42.65 46.58 41.84 41.47 41.84 41.47 42.65"/></svg>